# xmcd
#
# Track frame offsets:
#	150
#	3656
#	12277
#	16636
#	20967
#	25293
#	29609
#	33943
#	38244
#	42623
#	46924
#	56491
#	63062
#	69060
#	75060
#	81088
#	87056
#	93046
#	99046
#	105041
#	112388
#	118041
#	122240
#	126829
#	131330
#	135238
#	139434
#	143255
#	147456
#	151700
#	156392
#	161905
#	166692
#	171141
#	175572
#	180006
#	184492
#	188926
#	193367
#	197791
#	203359
#	208313
#	212772
#	216953
#	221129
#	225305
#	229476
#	233647
#	237818
#	241992
#	248623
#	254433
#	259453
#	267771
#	274470
#	281211
#	287840
#	294524
#	301183
#	307889
#	315261
#	319930
#	324099
#	328260
#	332444
#	336610
#	340786
#	344970
#	349141
#	353447
#
# Disc length: 4789 seconds
#
# Revision: 0
# Processed by: cddbd v1.5.1PL2 Copyright (c) Steve Scherf et al.
# Submitted via: audiograbber 1.83.01
#
DISCID=f412b346
DTITLE=VARIOS - BANDANEJO TCHÊ - VOL. 04
DYEAR=2005
DGENRE=SERTANEJO
TTITLE0=01 ABERTURA BANDANEJO - NÃO É DEFEITO
TTITLE1=02 JM - PEGANDO O ONIBUS
TTITLE2=03 BANDA SUL - O CANTOR E A FÃ
TTITLE3=04 CIA. DO BAILE - RIOS DA BABILÔNIA
TTITLE4=05 OS ATUAIS - BARCO DO AMOR
TTITLE5=06 DANUBIO AZUL - BILHETE DE AMOR
TTITLE6=07 DANUBIO AZUL - CADÊ O HOMEM
TTITLE7=08 TEODORO E SAMPAIO - DEIXA A PAIXÃO ENTRAR
TTITLE8=09 SAN FRANCISCO - DOCES PALAVRAS
TTITLE9=10 VANDERLEY RODRIGO - EU VOU EMBORA
TTITLE10=11 GRUPO HELLO - GLORIA
TTITLE11=12 OS CARRETEIROS 2005 - TENTEI TE ESQUECER
TTITLE12=13 SAN FRANCISCO - AMIGO
TTITLE13=14 OS CARRETEIRO 2005 - DANÇA DA CACHAÇA
TTITLE14=15 VANDERLEY RODRIGO - DEIXA EU TE AMAR
TTITLE15=16 MUSICAL JM - ESPREME
TTITLE16=17 TCHÊ GAROTOS - EVIDÊNCIAS
TTITLE17=18 CORPO E ALMA - FIM DE SEMANA
TTITLE18=19 GRUPO TRADIÇÃO - GARÇON AMIGO
TTITLE19=20 VANDERLEY RODRIGO - I LOVE MEU AMOR
TTITLE20=21 JM - AMOR MAFIOSO
TTITLE21=22 BRILHA SOM - BOATE AZUL
TTITLE22=23 CANTA SUL - ANJO
TTITLE23=24 JM - RISQUE MEU NOME
TTITLE24=25 DANUBIO AZUL - SEDE ZERO
TTITLE25=26 DANUBIO AZUL - AGARRADINHO
TTITLE26=27 DANUBIO AZUL - AMOR DE MOTOQUEIRO
TTITLE27=28 MOMENTOS - ELA NÃO GOSTA DE MIM
TTITLE28=29 SAN FRANCISCO - RASGUE MEU TELEFONE
TTITLE29=30 COSMOS EXPRESS - LOUCA PRA VOLTAR
TTITLE30=31 OS NATIVOS - CAPRICHA GAITEIRO
TTITLE31=32 OS SERRANOS PART. SERGIO REIS - NOSSA VANERA
TTITLE32=33 GAROTOS DE OURO - SOCADÃO
TTITLE33=34 OS 4 GAUDÉRIOS - PÕE E TIRA
TTITLE34=35 PASSARELA - TE AMO, TE ODEIO
TTITLE35=36 EDSON E HUDSON - SAPATEIA GALERA
TTITLE36=37 CÉU E CANTOS - A BONITONA
TTITLE37=38 COSMO EXPRESS - AMAR VOCÊ
TTITLE38=39 MINUANOS - CASTELOS DE SONHO
TTITLE39=40 MAATE QUENTE - COMIDA BOA
TTITLE40=41 VELHO MILONGUEIRO - SHOW DE BOLA
TTITLE41=42 JM - QUARTO DE MANSÃO
TTITLE42=43 SANGUE LATINO - O REMÉDIO É A CAMA
TTITLE43=44 TEODORO E SAMPAIO - A NAMORADA DO CARINHA
TTITLE44=45 DANUBIO AZUL - NÃO VÁ EMBORA
TTITLE45=46 GRUPO HELLO - MAMMA MARIA
TTITLE46=47 DANUBIO AZUL - É O BIXO
TTITLE47=48 DANUBIO AZUL - BEIJA BEIJA
TTITLE48=49 GRUPO G10 - EU NÃO PRECISO DE OUTRA
TTITLE49=50 GUILHERME E SANTIAGO - AI QUE TREM BÃO
TTITLE50=51 BANDA G10 - CORRENDO NO MANDIOCAL
TTITLE51=52 GIAN E GEOVANI - VOCÊ VIROU SAUDADE
TTITLE52=53 MAATE QUENTE - ELA SÓ CAMINHA
TTITLE53=54 VELHO MILONGUEIRO - CHUPA CHIMARRÃO
TTITLE54=55 GAROTOS DE OURO - LAMBENDO ESPOLETA
TTITLE55=56 VELHO MILONGUEIRO - MULHERZINHA VALENTE
TTITLE56=57 TEODORO E SAMPAIO - NA MIRA DO CHIFRUDO
TTITLE57=58 MOMENTOS - TÔ QUERENDO DE NOVO
TTITLE58=59 MINUANO - VEM PRÁ CÁ NEGUINHA
TTITLE59=60 GRUPO G10 - TRINTA FERROADAS
TTITLE60=61 PASSARELA - SE AINDA EXISTE AMOR
TTITLE61=62 RIO NEGRO E SOLIMÕES - DE BEM COM A VIDA
TTITLE62=63 OS 4 GAUDÉRIOS - O TITIO TÁ LOCO
TTITLE63=64 VELHO MILONGUEIRO PART. GAÚCHO DA FRONTEIRA - SE DIRIGIR NÃO BEBA
TTITLE64=65 GAROTOS DE OURO - A.M.M.M.
TTITLE65=66 REAL DO PARANÁ - VIÚVA NEGRA
TTITLE66=67 RICK E RENNER - BEBEDEIRA
TTITLE67=68 EDSON E HUDSON - CERVEJARIA
TTITLE68=69 GRUPO MOMENTOS - ALMAS GEMEAS
TTITLE69=70 OS CARRETEIROS - CHA LA LA LA
EXTD=
EXTT0=
EXTT1=
EXTT2=
EXTT3=
EXTT4=
EXTT5=
EXTT6=
EXTT7=
EXTT8=
EXTT9=
EXTT10=
EXTT11=
EXTT12=
EXTT13=
EXTT14=
EXTT15=
EXTT16=
EXTT17=
EXTT18=
EXTT19=
EXTT20=
EXTT21=
EXTT22=
EXTT23=
EXTT24=
EXTT25=
EXTT26=
EXTT27=
EXTT28=
EXTT29=
EXTT30=
EXTT31=
EXTT32=
EXTT33=
EXTT34=
EXTT35=
EXTT36=
EXTT37=
EXTT38=
EXTT39=
EXTT40=
EXTT41=
EXTT42=
EXTT43=
EXTT44=
EXTT45=
EXTT46=
EXTT47=
EXTT48=
EXTT49=
EXTT50=
EXTT51=
EXTT52=
EXTT53=
EXTT54=
EXTT55=
EXTT56=
EXTT57=
EXTT58=
EXTT59=
EXTT60=
EXTT61=
EXTT62=
EXTT63=
EXTT64=
EXTT65=
EXTT66=
EXTT67=
EXTT68=
EXTT69=
PLAYORDER=
